<svg width="148" height="107" viewBox="0 0 148 107" fill="none" xmlns="http://www.w3.org/2000/svg">
<rect x="2" y="58" width="143" height="44" rx="6" fill="black"/>
<path d="M12 58H136V86C136 89.3137 133.314 92 130 92H18C14.6863 92 12 89.3137 12 86V58Z" fill="#F7F7F7"/>
<path d="M75.8284 66.8284C74.2663 68.3905 71.7337 68.3905 70.1716 66.8284L44.7157 41.3726C43.1536 39.8105 43.1536 37.2778 44.7157 35.7157C46.2778 34.1536 48.8105 34.1536 50.3726 35.7157L73 58.3431L95.6274 35.7157C97.1895 34.1536 99.7222 34.1536 101.284 35.7157C102.846 37.2778 102.846 39.8105 101.284 41.3726L75.8284 66.8284ZM77 4V64H69V4H77Z" fill="black"/>
</svg>
