<svg viewBox="0 0 434 299" fill="none" xmlns="http://www.w3.org/2000/svg">
  <rect width="434" height="299" />
  <path
    d="M37 16.5H124.859C140.718 16.5 143.589 39.1084 128.233 43.0717L69.4191 58.2512C64.2272 59.5913 60.0102 63.3706 58.1116 68.3853L49.6254 90.7991C44.3122 104.832 23.5 101.024 23.5 86.019V30C23.5 22.5442 29.5442 16.5 37 16.5Z"
    fill="#E7E7E7" fill-opacity="0.5" stroke="black" stroke-width="3" />
  <path
    d="M398 16.5H289.934C273.761 16.5 271.267 39.7653 287.073 43.1933L358.008 58.5776C363.121 59.6865 367.405 63.1546 369.555 67.9247L385.692 103.74C391.666 116.999 411.5 112.737 411.5 98.1941V30C411.5 22.5442 405.456 16.5 398 16.5Z"
    fill="#E7E7E7" fill-opacity="0.5" stroke="black" stroke-width="3" />
  <path
    d="M36.51 273.211L139.05 272.816C155.128 272.755 157.649 249.679 141.965 246.146L74.0271 230.844C68.8741 229.684 64.5883 226.126 62.4987 221.275L48.6051 189.02C42.7915 175.523 22.6499 179.716 22.7065 194.412L22.9581 259.763C22.9868 267.219 29.0542 273.24 36.51 273.211Z"
    fill="#E7E7E7" fill-opacity="0.5" stroke="black" stroke-width="3" />
  <path
    d="M397.637 273.329L298.368 273.774C282.364 273.846 279.562 250.947 295.111 247.158L361.291 231.032C366.454 229.773 370.695 226.106 372.685 221.178L384.773 191.237C390.316 177.508 410.725 181.425 410.791 196.231L411.076 259.768C411.11 267.224 405.093 273.295 397.637 273.329Z"
    fill="#E7E7E7" fill-opacity="0.5" stroke="black" stroke-width="3" />
</svg>
